<?xml version="1.0" encoding="utf-8"?>
<!-- Generator: Adobe Illustrator 27.5.0, SVG Export Plug-In . SVG Version: 6.00 Build 0)  -->
<svg version="1.1" id="Capa_1" xmlns="http://www.w3.org/2000/svg" xmlns:xlink="http://www.w3.org/1999/xlink" x="0px" y="0px"
	 viewBox="0 0 2122 2122" style="enable-background:new 0 0 2122 2122;" xml:space="preserve">
<g>
	<path style="fill:#DB9649;" d="M1894.549,495.426c-43.448-56.691-174.737-140.426-273.964-194.904
		c-17.545-9.635-36.504-16.411-56.351-20.146c-0.266-0.041-0.521,0.066-0.669,0.286c-0.143,0.22-0.143,0.505,0.005,0.725
		c11.877,17.473,21.042,36.897,27.241,57.735c0.051,0.174,0.174,0.316,0.337,0.398c108.525,54.168,218.379,145.272,244.41,176.905
		c30.785,36.417,18.356,88.265,9.288,126.106c-5.811,21.78-12.536,43.706-19.041,64.909c-2.808,9.155-5.617,18.316-8.369,27.502
		c-0.051,0.174-0.026,0.36,0.061,0.516c2.293,3.924,4.718,7.889,7.057,11.724c8.895,14.55,18.086,29.598,22.574,46.336
		c9.161,44.387,8.124,90.473,7.118,135.042c-0.133,5.903-0.266,11.798-0.378,17.685c-0.766,32.044-0.72,63.306-0.582,97.92
		l0.026,6.618c0.076,17.887,0.153,36.381,0.092,54.569c-0.133,40.926-0.96,72.349-2.676,101.923
		c0.066,7.853-0.587,15.793-2.002,24.275c-0.342,2.042-0.766,4.279-1.343,7.036c-1.021,4.841-2.247,9.733-3.753,14.956
		c-0.291,1.006-0.587,2.011-0.893,3.018c-4.065,13.5-9.273,26.919-14.313,39.894l-1.823,4.703
		c-11.826,28.135-13.424,58.383-4.494,85.185c0.603,1.823,1.282,3.692,2.032,5.591c2.415,5.035,4.703,10.028,6.801,14.854
		c17.56,40.359,25.281,76.495,23.596,110.502c-0.169,10.539-0.097,21.849,0.24,36.667c0.158,7.031,0.363,14.108,0.562,21.211
		c0.24,8.532,0.485,17.105,0.659,25.689c0.715,34.788,0.429,71.823-6.485,106.917c-7.531,38.23-22.058,69.413-44.413,95.331
		c-0.184,0.214-0.21,0.521-0.067,0.766c0.123,0.199,0.337,0.316,0.562,0.316c0.046,0,0.092-0.005,0.143-0.015
		c45.393-10.013,82.152-34.39,103.486-68.611c37.99-54.498,37.346-121.526,36.723-186.348c-0.071-7.43-0.143-14.808-0.153-22.109
		c0.026-81.857,0.01-163.703-0.01-245.544c-0.046-200.454-0.097-407.73,0.582-611.607
		C1948.781,604.674,1930.379,542.693,1894.549,495.426z"/>
	<path style="fill:#F1BC63;" d="M1845.944,642.239c-0.169-0.166-0.424-0.227-0.628-0.174
		c-209.53,54.472-422.782,93.912-623.234,129.637c-104.629,15.87-210.24,36.182-312.378,55.825
		c-79.824,15.354-162.365,31.229-243.915,44.886c-45.246,7.657-90.797,18.448-134.843,28.885
		c-81.326,19.268-165.418,39.192-250.767,40.119c-0.21,0.003-0.404,0.104-0.526,0.273c-8.063,11.287-78.701,110.469-77.026,117.783
		c0.097,0.429,0.347,0.643,0.541,0.748c0.087,0.048,0.194,0.071,0.306,0.071c0.102,0,0.21-0.023,0.296-0.061
		c0.102-0.043,0.193-0.11,0.26-0.197c3.666-4.7,7.613-9.091,11.729-13.059c1.583-1.53,3.176-2.992,4.733-4.345
		c3.201-2.793,6.567-5.445,9.998-7.881c1.7-1.205,3.451-2.387,5.132-3.465c37.418-16.921,77.771-26.631,115.796-34.601
		c59.267-11.739,121.858-23.833,202.954-39.213l19.495-3.684c82.443-15.584,167.353-31.354,252.36-46.874
		c13.276-2.425,26.552-4.822,39.828-7.22c9.39-1.695,18.78-3.391,28.165-5.096c44.852-8.149,89.71-16.276,134.572-24.374
		c8.195-1.478,16.391-2.966,24.586-4.455c9.375-1.7,18.755-3.403,28.14-5.093l3.666-0.661
		c56.724-10.223,113.448-20.445,170.167-30.706c121.674-22.018,214.646-39.062,301.435-55.268
		c21.711-3.866,43.744-8.321,65.052-12.63c41.936-8.484,85.298-17.254,128.434-21.977c6.526-0.715,13.016-1.333,19.291-1.838
		c10.707-0.858,21.221-1.417,31.25-1.667c5.938-0.146,11.739-0.191,17.243-0.146h0.005c0.286,0,0.541-0.189,0.628-0.467
		c2.747-9.181,5.556-18.339,8.364-27.492c6.505-21.216,13.235-43.152,19.056-64.955
		C1846.168,642.643,1846.108,642.403,1845.944,642.239z"/>
	<g>
		<path style="fill:#FFDE82;" d="M1836.564,515.587c-26.823-32.592-134.547-122.189-244.834-177.236
			c-0.24-0.122-0.516-0.081-0.71,0.084c-0.199,0.169-0.281,0.436-0.21,0.687c19.403,65.193,8.558,137.909-28.982,194.474
			c-28.375,36.305-77.2,40.507-120.699,41.597c-6.577-0.219-13.552-0.378-22.692-0.505l-5.637-0.071
			c-7.205-0.074-14.425-0.12-21.645-0.123l-2.86,0.003c-7.347,0.005-14.695,0.025-22.048,0.049
			c-8.532,0.025-17.075,0.058-25.725,0.033c-6.204-0.013-12.413-0.059-18.622-0.13c-1.067-0.013-2.129-0.031-3.196-0.048
			l-2.272-0.036c-4.575-0.071-9.145-0.166-13.71-0.286c-2.139-0.059-4.284-0.123-6.429-0.192c-4.545-0.148-9.089-0.339-13.623-0.556
			l-1.782-0.079c-1.312-0.059-2.624-0.117-3.937-0.192c-7.031-0.383-13.266-0.799-19.056-1.271l-0.903-0.087
			c-5.734-0.477-11.571-1.055-17.846-1.764c-1.266-0.146-2.527-0.306-3.794-0.47l-2.043-0.26c-4.519-0.564-8.92-1.169-13.092-1.802
			c-2.185-0.332-4.371-0.679-6.551-1.044c-4.029-0.666-8.282-1.445-13.015-2.377l-1.874-0.363c-1.338-0.258-2.676-0.515-4.003-0.796
			c-6.853-1.453-12.868-2.862-18.372-4.307c-37.831-45.46-60.671-94.006-67.886-144.302c-0.031-0.212-0.164-0.393-0.352-0.49
			c-0.184-0.097-0.414-0.094-0.598,0.002c-101.014,52.818-191.301,108.135-239.804,137.853c-9.952,6.096-17.81,10.911-23.366,14.231
			c-66.579,43.563-134.567,87.443-200.318,129.877c-76.209,49.19-155.017,100.052-232.115,150.733
			c-8.93,5.555-18.162,11.068-27.093,16.398c-37.306,22.268-75.877,45.294-105.176,78.823c-0.174,0.194-0.209,0.467-0.102,0.702
			c0.107,0.232,0.337,0.381,0.592,0.381h0.005c85.497-0.929,169.661-20.869,251.058-40.155
			c44.025-10.432,89.556-21.219,134.756-28.87c81.565-13.656,164.116-29.534,243.951-44.888
			c102.122-19.64,207.722-39.95,312.321-55.817c0.005,0,0.01-0.003,0.016-0.003c200.492-35.733,413.775-75.178,623.351-129.66
			c0.235-0.061,0.414-0.245,0.47-0.48C1855.252,604.722,1867.767,552.504,1836.564,515.587z"/>
		<path style="fill:#FFDE82;" d="M1827.654,1300.935c-0.199-0.189-0.49-0.24-0.735-0.112c-27.221,13.266-57.163,23.33-94.238,31.668
			c-31.673,7.118-64.414,11.989-96.128,16.707c-4.708,0.699-9.405,1.399-14.103,2.109c-21.313,3.197-42.636,6.383-63.959,9.564
			l-31.872,4.734c-8.732,1.297-17.463,2.584-26.195,3.87l-7.45,1.098c-13.429,1.981-26.858,3.957-40.287,5.918l-9.293,1.343
			c-34.058,4.948-65.317,9.416-95.566,13.649l-14.128,1.981c-16.626,2.313-33.267,4.6-49.907,6.857l-9.865,1.323
			c-27.369,3.697-55.892,7.424-87.197,11.397l-11.269,1.44c-1.501,0.189-3.007,0.368-4.509,0.546
			c-1.486,0.174-2.972,0.352-4.453,0.536c-22.533,2.814-52.281,6.495-82.576,9.993l-2.813,0.332
			c-1.169,0.143-2.339,0.286-3.513,0.419c-31.959,3.666-60.441,6.781-87.1,9.528c-26.761,3.911-53.293,7.715-75.714,10.922
			c-31.98,4.576-63.964,9.104-95.954,13.634c-28.033,3.973-56.071,7.945-84.103,11.943c-28.447,4.06-57.209,8.206-85.492,12.331
			c-46.711,6.827-85.707,12.673-122.711,18.398c-23.417,3.625-45.057,7.041-66.14,10.447c-14.813,2.277-29.871,4.861-44.433,7.358
			c-19.572,3.355-39.807,6.827-59.773,9.61c-14.19,1.981-27.022,3.441-39.236,4.468c-13.939,1.169-26.837,1.746-39.419,1.772
			c-8.935,0.025-17.851-0.266-26.414-0.843c-0.306,0.021-0.633,0.214-0.689,0.551c-5.019,31.505,13.868,54.217,30.601,67.723
			c0.118,0.092,0.26,0.143,0.409,0.143c0.046,0,0.092-0.006,0.143-0.016c10.799-2.39,22.625-4.922,36.161-7.741
			c2.977-0.623,5.948-1.23,8.93-1.838l2.124-0.44c8.69-1.777,17.621-3.569,26.552-5.315l3.687-0.73
			c2.456-0.485,4.912-0.975,7.368-1.445c11.126-2.144,22.334-4.259,33.312-6.275c4.161-0.771,8.333-1.517,12.5-2.262l3.707-0.664
			c6.071-1.088,12.147-2.175,18.234-3.242c6.607-1.159,13.225-2.308,19.837-3.442l11.53-1.945c13.94-2.344,28.492-4.734,44.5-7.302
			l5.204-0.858c1.71-0.271,3.426-0.531,5.137-0.791c1.69-0.26,3.38-0.516,5.065-0.786c18.867-2.977,37.234-5.816,54.589-8.435
			l2.865-0.439c1.429-0.219,2.859-0.439,4.289-0.654c18.479-2.778,38.76-5.775,63.837-9.431l9.942-1.45
			c23.427-3.406,46.854-6.797,70.281-10.187c21.032-3.049,42.069-6.102,63.086-9.212c9.216-1.364,18.433-2.727,27.644-4.115
			c6.367-0.955,12.735-1.925,19.102-2.895c10.688-1.629,21.374-3.283,32.046-4.958c5.372-0.838,10.743-1.675,16.115-2.527
			c19.179-3.043,33.981-5.449,47.937-7.792c0.526-0.051,1.2-0.123,1.95-0.21l3.687-0.419c0.735-0.082,1.527-0.179,2.512-0.296
			l169.611-21.68c2.742-0.353,5.484-0.71,8.267-1.073l56.463-7.373c202.642-26.511,437.718-57.837,474.242-63.668
			c54.268-9.534,112.524-17.366,170.764-10.085c0.235,0.041,0.459-0.066,0.597-0.25c0.143-0.179,0.179-0.424,0.092-0.639
			c-0.72-1.833-1.394-3.681-1.992-5.479c-8.823-26.506-7.241-56.433,4.463-84.266
			C1827.914,1301.41,1827.853,1301.124,1827.654,1300.935z"/>
	</g>
	<g>
		<path style="fill:#6F2118;" d="M1669.507,1301.824c19.791,11.188,41.007,21.921,63.05,31.903c0.087,0.035,0.179,0.056,0.27,0.056
			c0.046,0,0.097-0.005,0.143-0.015c37.173-8.364,67.207-18.459,94.52-31.771c0.148-0.071,0.266-0.199,0.322-0.352l1.833-4.718
			c5.045-13,10.263-26.444,14.343-39.991c0.311-1.006,0.608-2.022,0.899-3.038c1.512-5.249,2.747-10.171,3.774-15.047
			c0.582-2.773,1.011-5.025,1.353-7.088c1.43-8.553,2.088-16.569,2.022-24.459c1.716-29.554,2.538-60.997,2.676-101.954
			c0.061-18.188-0.016-36.685-0.092-54.574l-0.026-6.618c-0.138-34.607-0.184-65.856,0.582-97.887
			c0.113-5.888,0.245-11.785,0.378-17.685c1.006-44.64,2.047-90.802-7.149-135.335c0-0.013-0.005-0.023-0.005-0.036
			c-4.545-16.957-13.792-32.087-22.728-46.716c-2.338-3.83-4.759-7.789-7.041-11.701c-0.118-0.199-0.332-0.322-0.562-0.324
			c-5.515-0.041-11.341,0.003-17.284,0.146c-10.054,0.25-20.593,0.812-31.321,1.672c-6.291,0.505-12.79,1.126-19.332,1.843
			c-43.193,4.726-86.585,13.503-128.552,21.992c-21.298,4.307-43.326,8.762-65.022,12.625
			c-86.799,16.207-179.766,33.254-301.44,55.269c-50.428,9.125-100.867,18.216-151.305,27.305l-12.311,2.219
			c-0.312,0.056-0.536,0.327-0.536,0.644v0.819c0,0.143,0.046,0.281,0.133,0.393
			C1243.584,1061.772,1469.622,1193.885,1669.507,1301.824z"/>
		<path style="fill:#6F2118;" d="M1857.305,1600.823c-0.174-8.583-0.419-17.162-0.659-25.694
			c-0.204-7.102-0.404-14.174-0.562-21.206c-0.337-14.797-0.409-26.092-0.24-36.596c1.695-34.185-6.061-70.516-23.708-111.063
			c-2.103-4.84-4.396-9.85-6.822-14.895c-0.092-0.204-0.286-0.342-0.505-0.367c-58.404-7.297-116.777,0.536-171.142,10.095
			c-36.509,5.826-271.564,37.147-474.201,63.658c-0.357,0.046-0.608,0.373-0.562,0.73c0.046,0.358,0.373,0.628,0.73,0.567h0.005
			c0.01,0-0.005,0,0.005,0l0.143-0.02l1.496,2.344c44.587,69.735,90.69,141.838,163.968,194.181
			c104.819,80.151,225.415,133.638,379.533,168.313c0.046,0.01,0.097,0.016,0.143,0.016s0.092-0.005,0.133-0.016
			c31.883-6.684,57.567-15.186,80.825-26.751c0.076-0.041,0.148-0.097,0.204-0.158c22.503-26.098,37.127-57.48,44.709-95.934
			C1857.734,1672.805,1858.025,1635.688,1857.305,1600.823z"/>
	</g>
	<g>
		<path style="fill:#5F1E16;" d="M1166.67,1415.563c-127.536-17.693-247.101-50.545-355.377-97.654
			c-0.286-0.143-0.643-0.02-0.812,0.25c-9.554,15.221-27.844,26.286-48.922,29.61c-16.753,2.62-33.307,0.153-46.568-6.995
			c-13.204-7.123-21.574-18.02-23.57-30.683c-2.313-14.69,4.34-29.718,18.254-41.237c0.164-0.138,0.25-0.352,0.23-0.567
			c-0.015-0.214-0.143-0.404-0.332-0.511c-36.611-20.286-72.278-42.626-106.039-66.41
			c-79.568-52.134-149.487-119.463-220.028-211.889c-0.153-0.197-0.373-0.289-0.648-0.245c-4.744,0.932-9.493,1.851-14.241,2.768
			c-5.821,1.125-11.637,2.252-17.458,3.403c-38.107,7.989-78.542,17.718-116.159,34.737c-1.777,1.133-3.549,2.326-5.264,3.544
			c-3.467,2.461-6.862,5.142-10.1,7.963c-1.573,1.368-3.181,2.844-4.785,4.391c-4.156,4.008-8.145,8.445-11.851,13.192
			c-1.925,2.464-3.539,4.667-4.933,6.735c-2.456,3.648-4.692,7.409-6.638,11.179c-2.012,3.896-3.758,7.876-5.198,11.831
			c-0.735,1.997-1.409,4.06-2.007,6.127c-1.21,4.182-2.109,8.42-2.681,12.597c-0.291,2.139-0.5,4.31-0.623,6.378
			c-2.048,13.695-3.503,27.951-4.447,43.586c-0.317,5.239-0.577,10.6-0.786,16.395c-0.511,14.18-0.674,29.376-0.526,49.274
			c0.061,8.349,0.174,16.697,0.281,25.046c0.174,13.332,0.358,27.118,0.332,40.66c0.066,6.607,0.056,13.781-0.031,21.925
			c-0.082,7.317-0.219,14.639-0.362,21.957l-0.225,11.182c-0.143,7.266-0.27,14.522-0.347,21.783
			c-0.035,3.661-0.061,7.322-0.066,10.983c-0.035,31.014,1.404,54.651,4.672,76.643c0.536,3.615,1.139,7.276,1.787,10.789
			c0.194,6.755,1.527,13.434,3.952,19.852c1.537,4.06,3.533,8.063,5.933,11.902c2.303,3.687,5.019,7.286,8.073,10.698
			c2.921,3.273,6.219,6.429,9.798,9.39c3.467,2.865,7.205,5.545,11.105,7.975c9.539,5.928,20.2,10.437,30.949,13.062
			c8.374,0.562,17.049,0.843,25.806,0.843h0.699c12.623-0.026,25.551-0.603,39.532-1.772c12.234-1.031,25.091-2.497,39.307-4.478
			c19.981-2.788,40.231-6.26,59.813-9.62c14.553-2.497,29.605-5.075,44.408-7.353c21.089-3.406,42.723-6.822,66.145-10.452
			c36.999-5.719,75.989-11.566,122.695-18.388c28.283-4.125,57.046-8.277,85.487-12.331c28.033-4.003,56.07-7.971,84.103-11.943
			c31.99-4.535,63.975-9.064,95.955-13.634c22.426-3.207,48.952-7.011,75.688-10.922c27.624-2.844,56.111-5.959,87.09-9.528
			c1.174-0.133,2.349-0.276,3.523-0.414l2.808-0.337c30.295-3.497,60.048-7.179,82.586-9.992c0.327-0.041,0.572-0.316,0.572-0.643
			S1166.992,1415.609,1166.67,1415.563z"/>
		<path style="fill:#5F1E16;" d="M1133.343,1915.769c-226.554-62.56-479.808-146.827-617.683-355.994
			c-0.143-0.22-0.429-0.327-0.648-0.286l-5.203,0.858c-16.013,2.563-30.57,4.953-44.51,7.301l-11.535,1.946
			c-6.617,1.134-13.235,2.282-19.842,3.441c-6.087,1.067-12.163,2.155-18.244,3.242l-3.702,0.664
			c-4.172,0.745-8.344,1.496-12.505,2.262c-10.983,2.017-22.191,4.13-33.323,6.275c-2.461,0.475-4.917,0.96-7.378,1.45l-3.686,0.725
			c-8.931,1.752-17.867,3.544-26.562,5.326l-2.124,0.434c-2.977,0.608-5.959,1.22-8.93,1.843
			c-13.542,2.819-25.378,5.351-36.151,7.736c-10.698,1.884-21.195,5.29-31.209,10.126c-6.49,3.14-12.78,6.883-18.698,11.126
			c-8.793,6.296-16.85,13.735-23.943,22.099c-2.328,2.752-4.58,5.637-6.694,8.583c-4.238,5.913-7.996,12.189-11.173,18.653
			c-1.588,3.232-3.064,6.582-4.381,9.957c-2.666,6.832-4.724,13.858-6.123,20.89c-1.435,7.205-2.196,14.542-2.267,21.793
			c-1.68,59.007-2.022,106.912-1.072,150.764c0.373,17.121,0.955,34.022,1.736,50.229c0.332,8.951,2.002,17.902,4.969,26.614
			c2.834,8.343,6.857,16.441,11.953,24.081c3.294,4.943,7.057,9.707,11.177,14.154c16.707,18.02,38.689,30.499,61.932,35.146
			c0.388,0.066,0.898,0.112,1.481,0.158l0.495,0.025c0.46,0.026,0.97,0.041,1.527,0.046l0.577,0.01h0.577
			c0.592,0,1.231-0.005,1.92-0.016l0.46-0.015c0.802-0.021,1.665-0.046,2.574-0.087l0.99-0.041c0.879-0.041,1.802-0.087,2.778-0.138
			l0.848-0.046c1.266-0.071,2.599-0.158,4.013-0.255l1.016-0.071c1.164-0.082,2.374-0.169,3.635-0.266l1.312-0.102
			c1.461-0.112,2.967-0.235,4.54-0.368l0.531-0.041c1.756-0.148,3.605-0.311,5.504-0.48l1.593-0.153
			c1.496-0.133,3.023-0.275,4.595-0.424l3.268-0.306c1.588-0.153,3.201-0.312,4.922-0.48c2.181-0.214,4.443-0.444,6.863-0.694
			l10.182-1.057c2.272-0.24,4.585-0.485,6.96-0.745l10.616-1.159c2.364-0.26,4.774-0.531,7.225-0.807l1.563-0.174
			c2.957-0.332,5.979-0.674,9.063-1.027l11.989-1.384c3.197-0.368,6.434-0.746,9.753-1.139l23.738-2.823
			c3.615-0.434,7.271-0.874,10.988-1.328l52.634-6.495c8.67-1.088,17.529-2.201,26.583-3.35l15.936-2.027
			c9.16-1.17,18.494-2.364,27.997-3.59l17.095-2.206c9.743-1.261,19.643-2.548,29.682-3.86c0.5-0.061,1.006-0.128,1.501-0.194
			c15.344-2.002,31.02-4.059,46.992-6.168l1.752-0.23c16.232-2.145,32.761-4.335,49.545-6.572l0.592-0.082
			c28.344-3.778,57.403-7.68,86.957-11.672l1.241-0.169c28.395-3.835,57.266-7.761,86.365-11.739l40.89-5.596
			c13.71-1.884,27.461-3.779,41.227-5.678c29.381-4.049,58.823-8.129,88.147-12.209l0.884-0.128
			c14.19-1.971,28.344-3.947,42.452-5.918l49.172-6.893c0.306-0.046,0.541-0.296,0.562-0.608
			C1133.843,1916.132,1133.644,1915.851,1133.343,1915.769z"/>
	</g>
	<g>
		<path style="fill:#662017;" d="M1733.099,1332.532c-22.013-9.962-43.188-20.675-62.959-31.852
			c-200.038-108.021-426.209-240.228-578.535-442.76c-0.148-0.199-0.383-0.288-0.638-0.25l-62.407,11.267
			c-44.862,8.098-89.72,16.225-134.572,24.374c-129.022,23.443-227.826,41.699-320.435,59.203l-19.449,3.676
			c-61.1,11.593-117.114,22.4-171.244,33.041c-0.22,0.043-0.404,0.2-0.485,0.409c-0.076,0.212-0.046,0.45,0.092,0.628
			c70.638,92.551,140.653,159.975,220.335,212.18c33.782,23.795,69.489,46.159,106.141,66.472c0.234,0.138,0.526,0.107,0.735-0.066
			c10.105-8.369,22.871-13.955,36.917-16.166c16.753-2.62,33.307-0.159,46.568,6.995c13.204,7.123,21.574,18.019,23.57,30.683
			c1.466,9.328-0.694,18.938-6.25,27.792c-0.102,0.164-0.128,0.358-0.071,0.541c0.056,0.179,0.189,0.327,0.362,0.404
			c108.383,47.16,228.06,80.048,355.713,97.757c0.031,0.005,0.061,0.005,0.092,0.005c0.025,0,0.056,0,0.081-0.005
			c1.481-0.184,2.962-0.363,4.443-0.536c1.506-0.179,3.012-0.357,4.519-0.546l11.269-1.44c31.311-3.972,59.834-7.705,87.208-11.397
			l9.865-1.323c16.64-2.256,33.281-4.544,49.917-6.857l14.129-1.981c30.249-4.238,61.508-8.701,95.566-13.648l9.299-1.343
			c13.434-1.961,26.863-3.937,40.292-5.918l7.445-1.098c8.737-1.287,17.468-2.579,26.199-3.87l31.873-4.734
			c21.323-3.181,42.646-6.367,63.959-9.564c4.697-0.709,9.395-1.409,14.103-2.108l0.368-0.056
			c31.576-4.703,64.23-9.564,95.714-16.656c0.306,0,0.572-0.215,0.639-0.515C1733.532,1332.966,1733.379,1332.66,1733.099,1332.532z
			"/>
		<path style="fill:#662017;" d="M1725.072,1829.593c-153.925-34.635-274.363-88.04-379.044-168.088
			c-73.089-52.205-119.126-124.207-163.641-193.834l-1.721-2.691c-0.138-0.21-0.388-0.327-0.633-0.296l-57.03,7.445
			c-2.773,0.362-5.515,0.72-8.262,1.072l-121.25,15.65l-48.498,6.051c-0.832,0.097-1.619,0.194-2.354,0.276l-3.687,0.419
			c-0.745,0.087-1.409,0.159-1.971,0.214c-14.001,2.344-28.794,4.749-47.972,7.797c-5.372,0.853-10.743,1.69-16.115,2.527
			c-10.672,1.675-21.349,3.324-32.036,4.948c-6.367,0.97-12.734,1.94-19.102,2.895c-9.211,1.389-18.428,2.752-27.644,4.116
			c-21.017,3.109-42.044,6.163-63.076,9.211c-23.427,3.391-46.854,6.781-70.281,10.187l-9.947,1.45
			c-25.076,3.661-45.363,6.658-63.842,9.431c-1.43,0.215-2.865,0.44-4.294,0.659l-2.859,0.434
			c-16.784,2.532-34.645,5.295-54.6,8.446c-1.685,0.265-3.37,0.521-5.055,0.781c-1.721,0.26-3.436,0.521-5.147,0.796
			c-0.22,0.031-0.409,0.179-0.495,0.378c-0.092,0.204-0.071,0.439,0.051,0.623c61.325,93.039,149.436,168.211,269.364,229.817
			c112.503,57.791,239.59,96.491,349.065,126.719c0.056,0.015,0.117,0.025,0.174,0.025c0.031,0,0.061,0,0.092-0.005l84.655-11.938
			l110.502-15.747c15.257-2.185,30.239-4.34,44.919-6.454l15.696-2.267c13.634-1.971,26.971-3.901,39.991-5.796l56.617-8.272
			c3.268-0.475,6.5-0.95,9.702-1.425c0.684-0.097,1.379-0.199,2.058-0.301c3.686-0.541,7.332-1.078,10.937-1.614
			c1.272-0.183,2.517-0.367,3.779-0.556l52.848-7.864c1.159-0.168,2.303-0.342,3.442-0.515l18.648-2.814
			c4.692-0.786,9.717-1.568,15.808-2.466c1.373-0.204,2.752-0.404,4.131-0.597l1.44-0.204c3.488-0.5,6.975-0.99,10.468-1.465
			l6.847-0.914c2.941-0.388,5.877-0.771,8.824-1.149l8.88-1.139c9.651-1.236,19.633-2.512,29.437-3.865l1.7-0.245
			c4.774-0.664,9.543-1.359,14.307-2.083c1.225-0.194,2.446-0.383,3.666-0.577c4.203-0.653,8.584-1.378,13.011-2.155l3.559-0.623
			c4.417-0.797,8.971-1.675,13.909-2.696l0.96-0.179c0.388-0.077,0.776-0.148,1.164-0.23c0.301-0.061,0.47-0.337,0.47-0.648
			C1725.633,1829.941,1725.373,1829.66,1725.072,1829.593z"/>
	</g>
	<path style="fill:#CF1C45;" d="M1410.713,231.283c-0.158-0.123-0.378-0.164-0.577-0.107c-10.248,2.964-20.7,4.468-31.081,4.468
		c-0.205,0-0.404-0.003-0.603-0.003c-2.666-0.016-5.418-0.069-8.205-0.146l-2.211-0.074c-2.283-0.076-4.611-0.176-6.975-0.299
		l-1.868-0.097c-2.942-0.166-6.077-0.386-9.319-0.649l-0.98-0.089c-2.39-0.199-4.78-0.406-7.23-0.661
		c-0.337-0.043-0.664,0.214-0.715,0.559c-5.939,41.679-20.021,79.242-40.706,108.618c-37.367,49.854-111.901,83.033-189.876,84.527
		c-0.194,0.002-0.378,0.094-0.5,0.245c-0.123,0.151-0.169,0.35-0.128,0.539c8.767,43.172,29.013,84.989,60.176,124.291
		c0.123,0.158,0.311,0.247,0.51,0.247c0.041,0,0.087-0.005,0.128-0.013c70.812-14.129,131.498-54,175.498-115.309
		c41.436-57.74,64.496-130.727,64.925-205.524C1410.973,231.602,1410.876,231.408,1410.713,231.283z"/>
	<path style="fill:#BD163A;" d="M1484.751,222.87c-0.066-0.202-0.224-0.36-0.424-0.424c-5.321-1.695-10.922-3.186-17.126-4.563
		l-0.521-0.125c-0.214-0.053-0.433-0.107-0.653-0.153c-2.297-0.498-4.544-0.909-7.036-1.361c-0.464-0.084-0.929-0.174-1.394-0.266
		c-0.72-0.138-1.44-0.278-2.165-0.398c-0.73-0.117-1.465-0.217-2.201-0.316l-2.609-0.373c-1.721-0.255-3.441-0.513-5.167-0.714
		c-0.164-0.01-0.327,0.023-0.455,0.117c-2.472,1.764-5.101,3.477-8.052,5.236c-6.745,4.021-13.93,7.36-21.349,9.921
		c-1.726,0.595-3.559,1.174-5.458,1.723c-0.281,0.082-0.475,0.334-0.475,0.626c-0.925,160.215-99.355,291.624-239.37,319.557
		c-0.225,0.043-0.409,0.202-0.485,0.416c-0.081,0.212-0.041,0.452,0.102,0.631c0.649,0.822,1.287,1.644,1.93,2.469
		c1.2,1.547,2.405,3.097,3.691,4.642c0.087,0.104,0.204,0.179,0.332,0.214c5.581,1.468,11.677,2.898,18.632,4.37
		c1.343,0.286,2.686,0.544,4.034,0.804l1.863,0.36c4.749,0.934,9.018,1.716,13.056,2.385c2.191,0.367,4.376,0.714,6.572,1.047
		c4.177,0.633,8.594,1.243,13.123,1.807l2.042,0.26c1.266,0.163,2.537,0.327,3.814,0.469c6.286,0.715,12.137,1.292,17.871,1.77
		l0.909,0.087c5.811,0.474,12.055,0.891,19.097,1.276c1.312,0.072,2.63,0.13,3.952,0.189l1.777,0.082
		c4.545,0.217,9.089,0.409,13.644,0.556c2.145,0.069,4.289,0.133,6.434,0.192c4.57,0.12,9.15,0.215,13.725,0.286l2.272,0.036
		c1.067,0.018,2.134,0.036,3.207,0.048c6.209,0.071,12.418,0.118,18.719,0.13c0.087,0,0.169-0.018,0.25-0.048
		c46.685-19.166,81.897-49.542,104.645-90.272C1496.547,400.084,1510.849,304.334,1484.751,222.87z"/>
	<path style="fill:#A51736;" d="M1592.067,338.749c-6.24-20.966-15.462-40.512-27.415-58.098c-2.466-3.625-4.703-6.74-6.888-9.592
		c-1.639-2.369-3.38-4.677-5.198-6.888c-3.661-4.448-7.69-8.558-11.989-12.229l-1.057-0.825c-2.196-1.823-3.922-3.164-5.576-4.33
		l-0.163-0.125c-2.89-2.033-5.908-3.896-8.997-5.785c-2.916-1.787-6.071-3.587-9.385-5.349c-1.256-0.669-2.533-1.287-3.814-1.907
		l-2.911-1.432c-0.899-0.452-1.798-0.904-2.712-1.325c-2.849-1.313-5.739-2.505-8.196-3.495l-0.654-0.276
		c-0.25-0.11-0.5-0.217-0.755-0.316c-2.712-1.07-5.673-2.145-9.064-3.286l-0.853-0.299c-0.322-0.107-0.644-0.225-0.965-0.342
		c-0.378-0.14-0.761-0.278-1.149-0.403c-0.235-0.077-0.49-0.013-0.664,0.161c-0.169,0.174-0.235,0.429-0.158,0.661
		c25.985,81.106,11.724,176.465-39.123,261.628c-0.005,0.005-0.005,0.01-0.01,0.015c-22.61,40.479-57.602,70.664-104.012,89.715
		c-0.286,0.12-0.439,0.424-0.383,0.73c0.061,0.306,0.342,0.528,0.654,0.528c8.538,0.013,17.08-0.005,25.618-0.033
		c7.353-0.023,14.701-0.043,22.048-0.049l2.86-0.003c7.22,0.003,14.43,0.049,21.634,0.123l5.703,0.071
		c9.059,0.128,16.023,0.283,22.631,0.505c43.836-1.098,93.008-5.346,121.766-42.138
		C1600.666,477.434,1611.573,404.309,1592.067,338.749z"/>
	<g>
		<path style="fill:#6CB53F;" d="M1224.63,105.657c-6.234-3.924-13.133-6.857-21.099-8.974c-11.647-3.097-23.636,0.72-31.27,9.967
			c-7.598,9.206-9.074,21.632-3.85,32.426c6.107,12.635,14.797,24.79,25.822,36.131c0.123,0.128,0.291,0.199,0.47,0.199h0.02
			c27.803-0.794,55.923-5.959,83.577-15.351c0.194-0.064,0.347-0.217,0.414-0.414c0.061-0.194,0.031-0.406-0.087-0.575
			C1264.586,138.699,1248.327,118.134,1224.63,105.657z"/>
		<path style="fill:#6CB53F;" d="M1362.608,114.623c-8.344-9.957-17.841-16.169-29.044-18.984c0,0,0-0.003-0.005-0.003
			c-10.202-2.484-25.336-3.11-34.43,3.311c-4.396,3.102-6.919,7.524-7.48,13.036c-4.182,15.502-2.844,31.015-1.21,42.794
			c0.031,0.199,0.143,0.373,0.317,0.475c0.102,0.059,0.22,0.089,0.332,0.089c0.082,0,0.163-0.015,0.24-0.046
			c25.929-10.143,49.877-23.511,71.18-39.733c0.138-0.11,0.229-0.271,0.25-0.449
			C1362.776,114.937,1362.725,114.759,1362.608,114.623z"/>
	</g>
	<path style="fill:#589333;" d="M1499.468,133.83l-0.066-0.939c-0.041-0.62-0.087-1.238-0.174-1.848
		c-0.082-0.518-0.194-1.024-0.307-1.529l-0.179-0.82c-0.112-0.528-0.229-1.054-0.378-1.57c-0.169-0.582-0.378-1.146-0.587-1.711
		l-0.219-0.597c-0.169-0.473-0.342-0.947-0.546-1.407c-0.312-0.707-0.669-1.387-1.037-2.076l-0.766-1.386
		c-0.429-0.717-0.904-1.407-1.399-2.091l-0.807-1.09c-0.521-0.662-1.103-1.333-1.787-2.058l-0.776-0.807
		c-0.694-0.676-1.43-1.335-2.196-1.953l-0.699-0.561c-0.879-0.667-1.726-1.249-2.609-1.782l-0.577-0.345
		c-0.99-0.577-1.997-1.09-3.002-1.532l-0.459-0.191c-1.144-0.48-2.242-0.866-3.355-1.182l-0.332-0.089
		c-1.241-0.337-2.476-0.59-3.681-0.756l-0.214-0.025c-1.353-0.174-2.645-0.24-4.064-0.25c-1.409,0.01-2.814,0.115-4.09,0.306
		c-0.245,0-0.465,0.135-0.577,0.35c-31.587,60.061-95.183,104.869-170.116,119.861c-0.301,0.061-0.521,0.324-0.526,0.631
		c-0.005,0.309,0.205,0.577,0.505,0.645c0.48,0.112,0.94,0.205,1.404,0.294c0.409,0.081,0.812,0.161,1.225,0.255
		c3.615,0.815,7.353,1.593,11.422,2.377l1.747,0.347c0.96,0.191,1.92,0.385,2.864,0.556c5.627,1.014,10.682,1.828,15.462,2.492
		l0.26,0.035c3.38,0.465,6.776,0.886,10.1,1.251l0.802,0.089c2.767,0.304,5.729,0.585,9.048,0.866l0.99,0.089
		c3.146,0.26,6.291,0.48,9.349,0.654l1.869,0.097c2.374,0.123,4.713,0.223,7.006,0.299l2.211,0.074
		c2.798,0.076,5.56,0.13,8.236,0.145c0.205,0,0.409,0.003,0.613,0.003c10.503,0,21.078-1.522,31.448-4.518
		c1.92-0.554,3.779-1.142,5.525-1.744c7.506-2.592,14.767-5.967,21.594-10.034c2.977-1.779,5.642-3.513,8.144-5.308
		c1.435-1.024,2.87-2.098,4.264-3.199c0.546-0.429,1.083-0.86,1.624-1.297c3.37-2.742,6.582-5.648,9.528-8.63l0.224-0.219
		c5.05-5.134,9.651-10.751,13.684-16.694c6.786-10.001,15.395-23.297,21.752-37.482c0.613-1.371,1.134-2.803,1.558-4.3l0.332-1.512
		c0.209-0.881,0.423-1.792,0.551-2.699c0.051-0.37,0.071-0.735,0.087-1.103c0.01-0.202,0.02-0.404,0.041-0.61l0.025-0.386
		c0.056-0.7,0.112-1.399,0.107-2.093C1499.539,134.688,1499.503,134.259,1499.468,133.83z"/>
	<path style="fill:#61A338;" d="M1465.695,105.815c-0.148-0.199-0.398-0.309-0.628-0.268c-1.108,0.161-2.252,0.327-3.41,0.623
		c-7.772,2.009-14.563,4.869-20.731,8.736c-7.332,4.254-14.369,9.914-21.517,17.307c-3.748,3.878-7.603,8.297-12.132,13.904
		c-2.681,3.322-5.341,6.74-7.915,10.046c-1.164,1.491-2.318,2.977-3.482,4.458c-1.68,2.134-3.355,4.253-5.06,6.344
		c-0.817-1.69-1.629-3.419-2.436-5.167c-0.383-0.817-0.761-1.647-1.139-2.477l-2.134-4.71c-3.089-6.85-6.291-13.935-9.87-20.714
		l-0.337-0.631c-1.073-2.002-2.17-3.954-3.268-5.803l-0.5-0.843c-1.134-1.876-2.354-3.756-3.723-5.742
		c-0.27-0.388-0.551-0.763-0.832-1.136l-0.485-0.661c-1.088-1.488-1.951-2.617-2.798-3.653c-0.092-0.115-0.179-0.237-0.27-0.357
		c-0.118-0.166-0.24-0.332-0.373-0.487c-0.23-0.268-0.659-0.278-0.945-0.064c-21.206,16.151-45.046,29.46-70.863,39.56
		c-0.281,0.11-0.444,0.427-0.404,0.725c0.363,2.607,0.776,5.206,1.205,7.797l0.102,0.628c0.434,2.571,0.894,5.139,1.359,7.698
		l1.603,8.88c0.27,1.493,0.536,2.987,0.791,4.475c-2.134-3.168-4.254-6.372-6.382-9.589l-0.96-1.45
		c-3.17-4.782-6.285-9.464-9.533-14.177c-0.163-0.243-0.48-0.352-0.745-0.247c-27.532,9.349-55.524,14.489-83.23,15.282
		c-0.26,0-0.5,0.156-0.603,0.399c-0.102,0.242-0.051,0.521,0.133,0.709c0.092,0.095,0.189,0.184,0.291,0.273
		c0.071,0.064,0.143,0.128,0.21,0.194c3.196,3.265,6.689,6.541,10.381,9.732c0.414,0.355,0.832,0.702,1.251,1.049l0.48,0.401
		c3.998,3.37,7.716,6.278,11.362,8.892l0.842,0.59c1.731,1.228,3.488,2.423,5.255,3.587c0.48,0.319,0.965,0.633,1.578,1.026
		c1.563,1.006,3.141,1.986,4.723,2.943c0.618,0.375,1.241,0.756,1.864,1.126c1.573,0.924,3.156,1.815,4.739,2.694l0.628,0.35
		c0.383,0.215,0.771,0.432,1.154,0.636c2.211,1.195,4.396,2.323,6.551,3.378c3.457,1.323,7.215,2.681,11.479,4.151
		c0.74,0.253,1.47,0.498,2.201,0.74l0.623,0.21c3.105,1.044,6.25,2.058,9.36,3.015l1.966,0.605
		c4.146,1.246,8.589,2.487,13.588,3.791c1.062,0.278,2.119,0.539,3.171,0.797l3.187,0.799c1.134,0.288,2.267,0.577,3.385,0.837
		c0.046,0.013,0.097,0.018,0.148,0.018c0.041,0,0.087-0.005,0.128-0.013c75.315-15.068,139.249-60.127,171.015-120.535
		C1465.854,106.28,1465.834,106.017,1465.695,105.815z"/>
	<g>
		<path style="fill:#E1304F;" d="M1301.298,343.572c20.818-29.559,34.977-67.319,40.946-109.202
			c0.026-0.176-0.026-0.355-0.133-0.493c-0.107-0.14-0.27-0.23-0.449-0.25l-2.589-0.289c-3.309-0.368-6.699-0.786-10.069-1.251
			l-0.255-0.036c-4.703-0.649-9.743-1.46-15.405-2.482c-0.939-0.171-1.889-0.36-2.844-0.551l-1.756-0.347
			c-4.024-0.776-7.746-1.553-11.382-2.372c-0.424-0.095-0.842-0.176-1.256-0.26c-0.45-0.089-0.899-0.176-1.364-0.283
			c-1.108-0.26-2.232-0.546-3.355-0.832l-3.202-0.802c-1.047-0.258-2.094-0.516-3.156-0.794c-4.979-1.3-9.411-2.535-13.537-3.776
			l-1.961-0.605c-3.094-0.952-6.234-1.963-9.323-3.005l-0.628-0.21c-0.73-0.242-1.455-0.485-2.186-0.735
			c-4.391-1.516-8.027-2.831-11.386-4.113c-1.818-0.894-3.63-1.826-5.438-2.783c-0.092-0.048-0.194-0.076-0.301-0.076
			c-12.607-0.112-24.3,1.772-34.548,5.693c-32.567,12.467-60.548,38.74-78.793,73.985c-19.408,37.497-26.225,81.31-19.71,126.696
			c0.567,3.942,1.328,8.182,2.481,13.751c0.061,0.304,0.368,0.521,0.679,0.521c0.072,0,0.143-0.013,0.21-0.038
			C1188.882,427.08,1263.718,393.709,1301.298,343.572z"/>
		<path style="fill:#E1304F;" d="M1288.968,1180.574c-13.521-7.276-30.331-9.819-47.395-7.133
			c-17.049,2.681-32.286,10.263-42.907,21.353c-10.672,11.132-15.411,24.464-13.348,37.541
			c3.702,23.544,28.737,39.802,58.547,39.797c4.279,0,8.655-0.332,13.082-1.031c17.049-2.681,32.286-10.269,42.907-21.354
			c10.672-11.131,15.41-24.468,13.347-37.545C1311.143,1199.124,1302.539,1187.896,1288.968,1180.574z"/>
		<path style="fill:#E1304F;" d="M793.78,1258.534c-13.505-7.286-30.325-9.819-47.39-7.133c-14.277,2.242-27.262,7.93-37.55,16.442
			c-14.277,11.826-21.094,27.297-18.704,42.453c2.053,13.077,10.662,24.31,24.239,31.627c9.993,5.392,21.809,8.18,34.18,8.18
			c4.35,0,8.773-0.347,13.21-1.047c21.445-3.375,40.073-14.67,49.82-30.203c5.729-9.125,7.955-19.046,6.434-28.691
			C815.961,1277.085,807.357,1265.851,793.78,1258.534z"/>
	</g>
	<g>
		<path style="fill:#3F1105;" d="M1269.891,1105.508c-4.871-30.953-33.981-52.179-64.981-47.301
			c-30.953,4.874-52.175,34.025-47.298,64.978c2.359,14.996,10.416,28.176,22.692,37.111c9.824,7.154,21.405,10.897,33.322,10.897
			c2.972,0,5.969-0.23,8.961-0.705C1253.546,1165.618,1274.767,1136.467,1269.891,1105.508z"/>
		<path style="fill:#3F1105;" d="M745.869,1130.477c-30.953,4.871-52.174,34.022-47.298,64.976
			c2.359,14.996,10.417,28.176,22.692,37.111c9.824,7.153,21.405,10.896,33.323,10.896c2.971,0,5.969-0.23,8.961-0.704
			c30.958-4.871,52.179-34.022,47.303-64.981C805.983,1146.822,776.858,1125.591,745.869,1130.477z"/>
		<path style="fill:#3F1105;" d="M1054.897,1172.292c-2.267-1.818-5.04-2.584-7.771-2.15c-5.637,0.884-9.431,6.623-8.461,12.791
			c3.651,23.223-14.961,45.521-41.503,49.698c-12.837,2.012-25.628-0.47-35.998-7.021c-10.335-6.531-16.998-16.304-18.765-27.522
			c-0.97-6.168-6.352-10.503-11.984-9.574c-5.632,0.883-9.431,6.628-8.461,12.796c5.025,31.923,34.002,54.6,67.233,54.594
			c3.783,0,7.628-0.291,11.499-0.903c37.811-5.948,64.021-39.726,58.425-75.285
			C1058.64,1176.739,1057.144,1174.099,1054.897,1172.292z"/>
	</g>
</g>
</svg>
