<?xml version="1.0" encoding="utf-8"?>
<!-- Uploaded to: SVG Repo, www.svgrepo.com, Generator: SVG Repo Mixer Tools -->
<svg width="800px" height="800px" viewBox="0 0 1024 1024" class="icon"  version="1.1" xmlns="http://www.w3.org/2000/svg"><path d="M926.143184 460.296863c-3.38906 2.334459-6.795527 4.650487-10.382197 6.881533-54.887421 34.046235-128.308189 13.14464-160.346585-43.698402-1.74982-3.097253-3.269266-6.272321-4.719088-9.455581-11.670245 0.541635-23.912842-0.813989-36.569088-4.436495-56.912666-16.26749-104.953365-87.843218-81.854512-149.843569a413.209401 413.209401 0 0 1 23.217623-51.276177c-50.313725 1.278833-84.085558-75.693794-30.218951-105.124355 3.972675-2.170637 7.970947-4.29008 11.969219-6.409522-32.973203-9.314285-67.637865-14.380469-103.451325-14.380469-217.344233 0-393.538516 183.117795-393.538516 409.025805 0 225.88958 176.194282 409.01659 393.538516 409.01659 217.336042 0 393.538516-183.12701 393.538515-409.01659 0-10.53578-0.437199-20.951765-1.183611-31.282768zM522.410866 629.26661c-66.341626 0-120.10482-53.771386-120.10482-120.10482s53.764218-120.097653 120.10482-120.097653c66.325244 0 120.097653 53.764218 120.097653 120.097653s-53.772409 120.10482-120.097653 120.10482z" fill="#E9933B" /><path d="M107.311373 419.400835H72.097909c-3.964484 18.429936-6.649111 35.835986-8.099957 53.242037h34.457837c1.648455-17.406051 4.539908-34.812101 8.855584-53.242037z" fill="#221714" /><path d="M956.524933 490.773833a17.162366 17.162366 0 0 0-11.660006-15.427904c-6.692114-2.247428-14.088662-0.188395-18.619355 5.234102-14.688659 17.495129-36.070456 26.744909-61.828339 26.744909-40.23255 0-69.799286-23.12445-79.109475-61.871343-2.067224-8.580159-10.331003-14.208457-19.013551-12.990033-5.921129 0.806822-11.240213 1.201017-16.268514 1.201018-70.760715 0-130.538212-59.77033-130.538212-130.538212 0-19.631977 4.443662-38.618907 13.213241-56.440655a17.148031 17.148031 0 0 0-3.741277-20.163374c-21.716608-20.094773-34.166029-48.048891-34.16603-76.672628 0-18.190347 5.062089-36.345881 14.637465-52.501768a17.171581 17.171581 0 0 0 0.910234-15.719711 17.143936 17.143936 0 0 0-12.278433-9.849777c-29.137729-5.873006-58.834499-8.85456-88.238437-8.85456-176.700082 0-329.572304 103.124706-402.144272 252.256675 0 0-1.921833 16.070904 15.238485 16.070904 15.976707 0 23.466428-15.821076 24.419665-18.000928 70.0399-128.497608 206.113235-216.010111 362.486122-216.010111 19.820372 0 39.777945 1.466204 59.590126 4.375062-5.878126 15.483194-8.940567 31.819284-8.940567 48.23319 0 34.081047 13.136449 67.32046 36.397075 92.974931-7.765146 19.254164-11.694818 39.485114-11.694818 60.301726 0 89.362663 75.487993 164.858848 164.850657 164.858848 2.050842 0 4.127282-0.051194 6.238533-0.153583 16.722095 45.903851 56.980242 73.80575 108.151983 73.80575 21.595789 0 41.159166-4.795879 57.968292-14.079447-9.1392 219.661286-190.694546 394.250116-412.561281 394.250116-200.398931 0-367.754012-150.189643-405.018318-334.489002H70.081879c37.718911 210.920377 220.37391 368.801446 439.742365 368.801447 246.611995 0 447.241301-199.986306 447.241301-446.606492 0-5.645704-0.170989-10.982194-0.540612-18.73915z" fill="#221714" /><path d="M105.182716 589.583887c0 10.304382-7.67914 18.661334-17.160319 18.661334-9.471963 0-17.941543-8.356952-17.941542-18.661334 0-10.305406 8.468556-18.654167 17.941542-18.654167 9.481178 0 17.160318 8.348761 17.160319 18.654167zM98.670805 472.919321c0 10.304382-7.584942 18.661334-16.954517 18.661334-9.36036 0-17.718336-8.356952-17.718336-18.661334 0-10.305406 8.356952-18.662358 17.718336-18.662358 9.369575-0.001024 16.954517 8.356952 16.954517 18.662358zM106.950965 421.720959c-1.982242 10.115987-11.368199 16.783528-20.96098 14.91289-9.601997-1.888045-15.762715-11.618027-13.771257-21.725823 1.982242-10.107796 11.360008-16.782504 20.952789-14.895483 9.600973 1.879853 15.761691 11.600621 13.779448 21.708416z" fill="#221714" /><path d="M143.751452 436.942038s62.960756-58.482282 72.107124 0c9.146368 58.499688 27.440127 50.777545 43.458812 54.638617 16.01971 3.861072 29.747964-16.73131 22.883837-37.324716-6.864127-20.592382-11.437823 23.19305-20.592381-43.312397-9.155583-66.496232-2.291455-84.797159 6.864127-77.934055 9.155583 6.855936 41.176572 59.314701 45.749244 78.844289 4.581887 19.527541-9.146368 44.685427 9.155583 62.995569 18.30195 18.30195 57.195258-18.619355 48.040699-37.907307-9.155583-19.287952-11.437823-7.850129-18.300926-47.876877-6.864127-40.03494-20.584191-58.345081-9.146368-69.782905 11.436799-11.436799 103.253716 85.552786 102.944502 117.659782-0.318428 32.116211 47.84309-48.769706 85.689987-31.746588 37.846897 17.032332 37.709697 42.197386 32.054778-37.872494-5.653895-80.061689-18.978738-83.442558 2.737869-91.499512 21.724799-8.065145 3.05425-13.736446-24.402259-59.486714-27.447294-45.749244-38.259523-45.758459-29.421344-75.496184 8.837154-29.734654-3.750492-43.600109-3.750492-43.600109s-294.059865-23.042539-366.072792 339.701601z" fill="#904C2A" /><path d="M492.663926 704.763818c0 15.152479-12.294815 27.447294-27.447294 27.447294-15.161694 0-27.456509-12.294815-27.456509-27.447294 0-15.169885 12.294815-27.456509 27.456509-27.456508 15.152479 0 27.447294 12.286624 27.447294 27.456508zM643.649127 704.763818c0 15.152479-12.287648 27.447294-27.448317 27.447294s-27.456509-12.294815-27.456509-27.447294c0-15.169885 12.295839-27.456509 27.456509-27.456508 15.161694 0 27.448318 12.286624 27.448317 27.456508zM588.744301 782.945654c0 23.286224-25.088262 42.154383-56.045435 42.154383s-56.045435-18.867135-56.045435-42.154383c0-23.286224-14.010847-42.154383 56.045435-42.154383 68.916697 0 56.045435 18.868159 56.045435 42.154383z" fill="#221714" /><path d="M564.659446 800.853408c0 8.537156-14.200266 15.453501-31.711776 15.453502-17.512535 0-31.703585-6.915321-31.703585-15.453502 0-8.537156 14.191051-15.452477 31.703585-15.452477 17.512535-0.001024 31.711776 6.914298 31.711776 15.452477z" fill="#D9362F" /><path d="M522.410866 629.26661c-66.238213 0-120.10482-53.875822-120.10482-120.10482 0-66.222855 53.866607-120.097653 120.10482-120.097653 66.21364 0 120.097653 53.874798 120.097653 120.097653 0 66.228998-53.884013 120.10482-120.097653 120.10482z m0-205.898219c-47.310669 0-85.792375 38.490921-85.792375 85.793399 0 47.301454 38.48273 85.792375 85.792375 85.792375 47.302478 0 85.785208-38.490921 85.785208-85.792375 0-47.302478-38.48273-85.793399-85.785208-85.793399z" fill="#060001" /><path d="M238.733198 342.16507c0 10.107796-8.194154 18.30195-18.30195 18.30195-10.114963 0-18.310141-8.194154-18.310142-18.30195s8.195178-18.310141 18.310142-18.310142c10.107796 0 18.30195 8.202345 18.30195 18.310142z" fill="#E4CA69" /><path d="M392.009855 240.370391c0 22.102613-17.932328 40.025725-40.03494 40.025725-22.110804 0-40.043131-17.924136-40.043131-40.025725 0-22.120019 17.932328-40.043131 40.043131-40.043132 22.102613-0.001024 40.03494 17.923113 40.03494 40.043132z" fill="#51B5BE" /><path d="M513.573712 270.262723c0 16.508103-13.393444 29.893356-29.901547 29.893356s-29.893356-13.385253-29.893356-29.893356c0-16.517318 13.385253-29.893356 29.893356-29.893356 16.508103 0.001024 29.901547 13.377062 29.901547 29.893356z" fill="#DA4D5F" /><path d="M475.503608 143.705377c0 10.417009-8.442958 18.877374-18.868159 18.877374-10.424176 0-18.87635-8.460364-18.87635-18.877374 0-10.4252 8.451149-18.87635 18.87635-18.87635s18.868159 8.452173 18.868159 18.87635z" fill="#9DA523" /></svg>